<?xml version="1.0" encoding="UTF-8" standalone="no"?>
<!-- Created with Inkscape (http://www.inkscape.org/) -->

<svg
   version="1.1"
   id="svg1"
   width="1340.4087"
   height="409.95471"
   viewBox="0 0 1340.4087 409.95471"
   sodipodi:docname="hover_simplified.svg"
   inkscape:export-filename="hover_simplified.pdf"
   inkscape:export-xdpi="600"
   inkscape:export-ydpi="600"
   inkscape:version="1.4 (86a8ad7, 2024-10-11)"
   xmlns:inkscape="http://www.inkscape.org/namespaces/inkscape"
   xmlns:sodipodi="http://sodipodi.sourceforge.net/DTD/sodipodi-0.dtd"
   xmlns="http://www.w3.org/2000/svg"
   xmlns:svg="http://www.w3.org/2000/svg">
  <defs
     id="defs1" />
  <sodipodi:namedview
     id="namedview1"
     pagecolor="#ffffff"
     bordercolor="#000000"
     borderopacity="0.25"
     inkscape:showpageshadow="2"
     inkscape:pageopacity="0.0"
     inkscape:pagecheckerboard="0"
     inkscape:deskcolor="#d1d1d1"
     inkscape:zoom="1.3747516"
     inkscape:cx="620.47573"
     inkscape:cy="185.85176"
     inkscape:window-width="3840"
     inkscape:window-height="2054"
     inkscape:window-x="1609"
     inkscape:window-y="-11"
     inkscape:window-maximized="1"
     inkscape:current-layer="g1">
    <inkscape:page
       x="0"
       y="0"
       inkscape:label="1"
       id="page1"
       width="1340.4087"
       height="409.95471"
       margin="0"
       bleed="0" />
  </sodipodi:namedview>
  <g
     id="g1"
     inkscape:groupmode="layer"
     inkscape:label="1"
     transform="translate(-0.5792431,4.5656673)">
    <path
       id="path1"
       d="m 27.581,2.055 372.596,99.168"
       style="fill:none;stroke:#dd0000;stroke-width:11.34;stroke-linecap:butt;stroke-linejoin:miter;stroke-miterlimit:4;stroke-dasharray:none;stroke-opacity:1"
       transform="scale(1.3329907,1.3333333)" />
    <path
       id="path3"
       d="m 594.184,175.598 382.95,101.347"
       style="fill:none;stroke:#dd0000;stroke-width:11.34;stroke-linecap:butt;stroke-linejoin:miter;stroke-miterlimit:4;stroke-dasharray:none;stroke-opacity:1"
       transform="scale(1.3329907,1.3333333)" />
    <text
       id="text5"
       xml:space="preserve"
       transform="scale(0.99565566,1.0043633)"
       style="font-size:74.6667px;stroke-width:1.33915"
       x="774.42212"
       y="387.51331"><tspan
         id="tspan5"
         style="font-variant:normal;font-weight:normal;font-size:74.6667px;font-family:'Times New Roman';writing-mode:lr-tb;fill:#db0000;fill-opacity:1;fill-rule:nonzero;stroke:none;stroke-width:1.33915"
         x="774.42212"
         y="387.51331">Leading Edge</tspan></text>
    <path
       id="path5"
       d="M 568.744,242.473 C 430.532,289.402 384.88,196.203 384.88,196.203"
       style="fill:none;stroke:#000000;stroke-width:2.83565;stroke-linecap:butt;stroke-linejoin:miter;stroke-miterlimit:4;stroke-dasharray:none;stroke-opacity:1"
       transform="scale(1.3329907,1.3333333)" />
    <path
       id="path6"
       d="m -302.934,232.888 -11.014,6.369 -0.001,-12.734 z"
       style="fill:#000000;fill-opacity:1;fill-rule:evenodd;stroke:#000000;stroke-width:1.6977;stroke-linecap:butt;stroke-linejoin:miter;stroke-miterlimit:4;stroke-dasharray:none;stroke-opacity:1"
       transform="matrix(-0.65295467,-1.3333333,1.3329907,-0.65312267,0,0)" />
    <path
       id="path7"
       d="M 448.549,46.742 C 589.405,8.488 629.185,104.344 629.185,104.344"
       style="fill:none;stroke:#000000;stroke-width:2.83565;stroke-linecap:butt;stroke-linejoin:miter;stroke-miterlimit:4;stroke-dasharray:none;stroke-opacity:1"
       transform="scale(1.3329907,1.3333333)" />
    <path
       id="path8"
       d="m 319.31,-499.811 -11.327,6.548 10e-4,-13.096 z"
       style="fill:#000000;fill-opacity:1;fill-rule:evenodd;stroke:#000000;stroke-width:1.74606;stroke-linecap:butt;stroke-linejoin:miter;stroke-miterlimit:4;stroke-dasharray:none;stroke-opacity:1"
       transform="matrix(0.553164,1.3333333,-1.3329907,0.55330667,0,0)" />
    <text
       id="text9"
       xml:space="preserve"
       transform="matrix(1.3333333,0,0,1.3336759,774.33229,60.626057)"
       style="font-size:55.9928px"><tspan
         id="tspan9"
         style="font-variant:normal;font-weight:normal;font-size:55.9928px;font-family:'Times New Roman';writing-mode:lr-tb;fill:#000000;fill-opacity:1;fill-rule:nonzero;stroke:none"
         x="0"
         y="0">Ω</tspan></text>
    <text
       id="text9-1"
       xml:space="preserve"
       transform="scale(0.99987152,1.0001285)"
       x="534.09674"
       y="384.96164"
       style="font-size:74.6667px;stroke-width:1.3335"><tspan
         id="tspan9-1"
         style="font-variant:normal;font-weight:normal;font-size:74.6667px;font-family:'Times New Roman';writing-mode:lr-tb;fill:#000000;fill-opacity:1;fill-rule:nonzero;stroke:none;stroke-width:1.3335"
         x="534.09674"
         y="384.96164">Ω</tspan></text>
    <text
       xml:space="preserve"
       style="font-size:74.6667px;font-family:'Times New Roman';-inkscape-font-specification:'Times New Roman, ';text-align:start;writing-mode:lr-tb;direction:ltr;text-anchor:start;fill:#000000;stroke:#ff0707;stroke-width:18.8976"
       x="1067.6812"
       y="183.832"
       id="text1"><tspan
         sodipodi:role="line"
         id="tspan1"
         x="1067.6812"
         y="183.832" /></text>
  </g>
  <g
     inkscape:groupmode="layer"
     id="layer3"
     inkscape:label="2"
     style="display:inline"
     transform="translate(-0.5792431,4.5656673)">
    <path
       id="path9"
       d="m 596.2,176.5 84.83,22.406 49.619,13.207 65.321,17.203 181.766,48.118 M 586.197,180 l 4.201,1.102 m -19.107,31.808 8.303,2.203 m 31.211,-89.73 -8.404,-2.301 m 23.111,39.711 -9.604,-2.602 M 400.533,100.473 382.098,95.582 216.966,51.754 28.8,1.836 m 230.481,119.445 121.743,40.414 M 0.789,35.449 84.717,63.258 m 296.307,98.437 12.503,3.399 m 2.204,0.101 4.301,1.2 m 30.61,-89.93 -3.802,-1.102 m -26.808,34.512 v 70.824 M 606.406,124.18 v -14.305 m 10.502,53.418 2.2,-0.199 3.2,-0.199 3.204,-0.102 m 380.133,91.332 -95.634,-23.008 -95.732,-23.008 -188.767,-45.316 m 351.723,113.941 0.102,-0.5 0.098,-0.398 0.402,-0.902 0.899,-1.301 1.801,-2.199 3.7,-3.403 7.303,-5.5 4.704,-3.101 4.701,-2.801 4.7,-2.504 M 977.235,276.734 594.7,175.398 m 0,0 v 0 m 24.209,-10.804 -6.002,1 -6.204,1.504 -6.803,2.898 -2.2,1.5 -2,2.004 -0.598,0.797 -0.301,0.601 -0.101,0.5 m 382.535,101.336 0.2,0.5 0.301,0.2 h 0.902 l 1.7,-0.7 3.602,-2.3 7.299,-6 4.802,-4.504 4.802,-4.703 4.802,-4.899 m 0,0 v -0.203 M 578.696,212.711 v 0.801 l 0.097,0.601 0.203,0.5 0.297,0.399 0.301,0.101 h 0.403 l 0.398,-0.101 0.5,-0.399 m -2.199,-54.519 v 52.617 m 2.199,-58.82 -0.5,0.5 -0.398,0.601 -0.403,0.801 -0.301,0.801 -0.297,0.898 -0.203,0.903 -0.097,0.898 v 0.801 m 30.808,-34.211 -28.609,28.008 m 30.813,-26.11 v -0.699 l -0.102,-0.699 -0.199,-0.5 -0.301,-0.301 -0.402,-0.199 h -0.297 l -0.403,0.199 -0.5,0.301 m 2.204,1.898 v 28.91 M 583.396,176 l 0.301,-1.703 0.097,-0.199 V 174 l 0.102,-0.801 0.301,-1.203 0.398,-1.098 0.602,-1.402 0.301,-0.699 0.297,-0.699 0.5,-0.801 0.602,-0.703 0.602,-0.699 1.301,-1.399 1.098,-0.801 1.199,-0.902 1.301,-0.801 1.602,-0.699 1.602,-0.801 1.7,-0.597 1.899,-0.704 5.802,-1.398 6.705,-1.102 M 586.197,180 l -0.402,-0.102 -0.399,-0.199 -0.398,-0.301 -0.301,-0.296 -0.301,-0.301 -0.301,-0.403 -0.199,-0.597 -0.102,-0.5 -0.398,-1.301 m 26.108,10.703 0.5,-0.5 0.403,-0.699 0.297,-0.703 0.402,-0.899 0.301,-0.8 0.199,-0.903 0.102,-0.898 V 180.5 m -2.204,6.203 -28.609,27.91 m -8.404,-63.023 8.404,2.301 m -2.199,6.203 -8.405,-2.301 m 0,0 v -0.801 l 0.199,-0.898 0.2,-0.903 0.203,-0.898 0.398,-0.801 0.403,-0.801 0.398,-0.601 0.399,-0.5 m -2.2,58.922 8.405,2.199 m -8.405,-54.918 v 52.719 m 39.213,-84.629 -8.303,-2.301 m 0,0 -28.71,28.008 m 46.418,13.004 -0.801,-0.301 -0.699,-0.398 -0.7,-0.7 -0.5,-0.699 -0.402,-0.902 -0.2,-0.899 -0.101,-0.902 0.101,-0.898 m -27.409,17.605 0.801,-0.5 1.301,-0.5 1.399,-0.301 1.602,-0.101 1.399,0.3 m -6.502,1.102 0.301,-1.703 0.598,-2.098 0.601,-1.801 0.301,-0.402 1.098,-1.801 2.602,-2.601 2.403,-1.598 7.1,-3.101 6.302,-1.5 6.103,-1 m -11.702,19.707 -2.204,0.796 -2.899,0.903 -2.602,0.601 -2.602,0.399 h -2.501 l -0.899,-0.199 -0.801,-0.403 -0.801,-0.801 -0.398,-0.597 -0.301,-0.903 -0.098,-0.398 -0.101,-0.402 -0.102,-0.5 m 0,0 0.301,-1.7 v -0.199 l 0.102,-0.101 0.097,-0.801 0.602,-2.301 0.602,-1.398 0.699,-1.301 1.598,-2.301 1.204,-1.199 3.801,-2.602 6.701,-2.8 12.605,-2.602 m 0,4.102 v -4.102 m 0,0 -4.2,-1.102 m -24.112,20.407 -4.2,-1.098 m -12.105,36.91 -0.398,-0.199 -0.203,-0.399 -0.2,-0.5 -0.199,-0.601 v -0.699 m 30.91,-86.93 0.403,-0.301 0.398,-0.199 h 0.399 m -208.874,42.012 2.704,-3.801 2.7,-3.801 1.101,-1.601 m -6.505,9.004 v 0.199 m 6.505,-12.602 -0.101,0.297 -3.2,6.004 -3.204,6.102 m 1.203,-54.821 0.098,-0.801 0.102,-0.898 0.199,-0.902 0.301,-0.899 0.301,-0.801 0.398,-0.699 0.403,-0.699 0.398,-0.5 m 3.102,42.113 -9.506,-2.5 m 0,0 v -5.601 m 0,0 4.204,1.097 m 0,-28.91 v 28.91 m -4.204,4.504 -3.2,5.903 -3.2,6 -3.102,6.101 M 0.891,35.25 96.525,66.961 192.159,98.773 381.024,161.492 M 28.8,1.836 h -0.203 l -0.797,0.402 -1.903,1.399 -3.7,3.703 -7.303,8.801 -4.7,6.105 -4.704,6.402 -4.599,6.602 m 389.635,105.535 -3.001,-0.898 m 9.405,-36.012 28.711,-28.012 m -44.617,85.629 12.503,3.403 m -12.503,-3.403 h -0.098 v 0.203 h 0.098 M 0.789,35.449 V 35.25 H 0.891 M 259.281,121.18 130.135,78.266 84.819,63.258 m 309.911,67.324 -4.204,7.305 m -3.001,2 0.801,0.199 0.801,0.102 0.602,-0.102 0.5,-0.102 0.297,-0.199 m 5.205,25.41 -0.301,-0.199 -0.301,-0.301 -0.199,-0.5 -0.102,-0.699 -0.098,-0.101 m 30.911,-87.532 0.398,-0.301 0.403,-0.199 h 0.398 m 140.65,76.028 38.615,-37.715 m -205.776,-7.703 -0.199,4.902 0.602,4.902 1.5,4.903 2.399,4.703 3.204,4.699 4.001,4.402 4.802,4.301 5.599,4.004 6.303,3.699 6.904,3.403 7.502,3 8.002,2.699 8.404,2.301 8.803,1.902 9.202,1.5 9.303,1 9.507,0.5 9.6,0.203 9.506,-0.402 9.401,-0.801 9.303,-1.199 8.905,-1.699 8.701,-2.102 8.205,-2.5 7.702,-2.902 M 438.945,68.262 400.329,105.973 m 205.776,7.703 0.301,-4.903 -0.602,-4.898 -1.602,-4.902 -2.301,-4.703 -3.2,-4.704 -4.103,-4.398 -4.798,-4.305 -5.603,-4 -6.205,-3.699 -6.9,-3.402 -7.502,-3 -8.002,-2.703 -8.506,-2.301 -8.803,-1.899 -9.104,-1.504 -9.401,-1 -9.502,-0.5 -9.507,-0.199 -9.604,0.403 -9.401,0.796 -9.205,1.204 -9.002,1.699 -8.604,2.101 -8.303,2.5 -7.701,2.903 m 128.545,83.129 v 70.925 m -167.458,-41.617 0.098,1.102 0.602,4.902 1.5,4.801 2.399,4.801 3.204,4.601 4.001,4.504 4.802,4.199 5.599,4.004 6.303,3.801 6.904,3.402 7.502,3 8.002,2.7 8.404,2.3 8.803,1.903 9.202,1.398 9.303,1.102 9.507,0.5 9.6,0.101 9.506,-0.3 9.401,-0.801 9.303,-1.301 8.905,-1.602 8.701,-2.097 8.205,-2.602 7.702,-2.801 m 38.615,-108.64 v 10.406 m -38.615,98.234 8.404,-8.203 m 18.806,-38.715 0.199,0.403 0.902,0.597 0.399,0.102 m 5.904,1.602 -0.801,0.296 -7.604,1.704 -3.301,-0.301 -1.399,-1 -0.801,-2.301 m 37.314,-13.707 -9.604,-2.602 m -215.876,-48.617 -5.302,-1.5 m 2.2,-6.199 4.302,1.199 m -13.707,34.813 6.103,-10.805 1.102,-1.902 m 35.212,-50.118 -4.301,-1.199 m -30.512,87.032 4.903,1.3"
       style="fill:none;stroke:#000000;stroke-width:0.708912;stroke-linecap:round;stroke-linejoin:round;stroke-miterlimit:10;stroke-dasharray:none;stroke-opacity:1"
       transform="scale(1.3329907,1.3333333)" />
  </g>
</svg>
